<svg width="16" height="16" fill="none" xmlns="http://www.w3.org/2000/svg" viewBox="0 0 32.276 32.709">
  <path d="M28.908 6.355a16.45 16.45 0 0 1 1.934 3.252l-14.7 10.982-6.144-3.903V11.99l6.144 3.903z" fill="#21a038" />
  <path
    d="M3.728 16.355c0-.211.005-.42.015-.629L.02 15.541a16.501 16.501 0 0 0 1.206 7.074 16.326 16.326 0 0 0 3.5 5.302l2.642-2.675a12.544 12.544 0 0 1-2.695-4.076 12.679 12.679 0 0 1-.945-4.811Z"
    fill="url(#a)" style="fill:url(#a)" />
  <path
    d="M16.139 3.777c.207 0 .414.008.62.018l.185-3.774a15.909 15.909 0 0 0-6.983 1.222A16.082 16.082 0 0 0 4.727 4.79l2.64 2.676a12.357 12.357 0 0 1 4.023-2.732 12.223 12.223 0 0 1 4.748-.958Z"
    fill="url(#b)" style="fill:url(#b)" />
  <path
    d="M16.139 28.932c-.208 0-.415 0-.621-.017l-.187 3.773a15.898 15.898 0 0 0 6.981-1.221 16.072 16.072 0 0 0 5.232-3.549l-2.636-2.675a12.363 12.363 0 0 1-4.022 2.731 12.228 12.228 0 0 1-4.747.958z"
    fill="url(#c)" style="fill:url(#c)" />
  <path d="m23.134 5.972 3.138-2.344A15.933 15.933 0 0 0 16.134 0v3.777a12.23 12.23 0 0 1 7 2.195z" fill="url(#d)"
    style="fill:url(#d)" />
  <path
    d="M32.276 16.355a16.67 16.67 0 0 0-.254-2.931l-3.473 2.594v.337a12.7 12.7 0 0 1-1.067 5.1 12.538 12.538 0 0 1-3.021 4.221l2.505 2.806a16.306 16.306 0 0 0 3.927-5.492 16.498 16.498 0 0 0 1.383-6.635z"
    fill="#21a038" />
  <path
    d="M16.139 28.932a12.25 12.25 0 0 1-5.034-1.082 12.393 12.393 0 0 1-4.165-3.06l-2.768 2.537a16.105 16.105 0 0 0 5.419 3.98 15.913 15.913 0 0 0 6.548 1.403z"
    fill="url(#e)" style="fill:url(#e)" />
  <path
    d="M7.816 7.033 5.312 4.227a16.304 16.304 0 0 0-3.928 5.491A16.498 16.498 0 0 0 0 16.354h3.728a12.7 12.7 0 0 1 1.067-5.1 12.54 12.54 0 0 1 3.021-4.221Z"
    fill="url(#f)" style="fill:url(#f)" />
  <defs>
    <linearGradient id="a" x1="5.481" y1="27.446" x2="1.31" y2="15.548" gradientUnits="userSpaceOnUse">
      <stop offset=".14" stop-color="#F1E813" />
      <stop offset=".3" stop-color="#E6E418" />
      <stop offset=".58" stop-color="#C9DA26" />
      <stop offset=".89" stop-color="#A2CC39" />
    </linearGradient>
    <linearGradient id="b" x1="5.791" y1="5.459" x2="16.318" y2="1.5" gradientUnits="userSpaceOnUse">
      <stop offset=".06" stop-color="#0FA7DF" />
      <stop offset=".54" stop-color="#0098F8" />
      <stop offset=".92" stop-color="#0290EA" />
    </linearGradient>
    <linearGradient id="c" x1="15.085" y1="30.429" x2="26.965" y2="27.781" gradientUnits="userSpaceOnUse">
      <stop offset=".12" stop-color="#A2CC39" />
      <stop offset=".28" stop-color="#86C239" />
      <stop offset=".87" stop-color="#219F38" />
    </linearGradient>
    <linearGradient id="d" x1="15.358" y1="1.265" x2="25.524" y2="4.361" gradientUnits="userSpaceOnUse">
      <stop offset=".06" stop-color="#0290EA" />
      <stop offset=".79" stop-color="#0C89CA" />
    </linearGradient>
    <linearGradient id="e" x1="5.107" y1="26.867" x2="16.183" y2="30.951" gradientUnits="userSpaceOnUse">
      <stop offset=".13" stop-color="#F1E813" />
      <stop offset=".3" stop-color="#EAE616" />
      <stop offset=".53" stop-color="#D8DF1F" />
      <stop offset=".8" stop-color="#BAD52D" />
      <stop offset=".98" stop-color="#A2CC39" />
    </linearGradient>
    <linearGradient id="f" x1="1.389" y1="16.812" x2="5.925" y2="5.169" gradientUnits="userSpaceOnUse">
      <stop offset=".07" stop-color="#A2CC39" />
      <stop offset=".26" stop-color="#81C45E" />
      <stop offset=".92" stop-color="#0FA7DF" />
    </linearGradient>
  </defs>
</svg>
