<svg width="16" height="16" viewBox="0 0 544.1 482.9" fill="none" xmlns="http://www.w3.org/2000/svg">
  <path
    d="m537 225.9 7.1-22.5-23.4.7c-2 0-16.3-.4-30.2-10.4 1 .1 2 .3 3.1.3 14.4 0 28.2-8.6 33.8-20.9l10-22.1c-12.6.1-24-1.4-24-1.4-.2 0-9.3-1.2-19.8-11.9A37.3 37.3 0 0 0 455 128c.5-1.8 1-3.6 1.3-5.5A49.5 49.5 0 0 0 446 85.9l-17.5-21.7-11 25.4c0 .1-2.7 6-7.6 9a47.1 47.1 0 0 0-13-23.9 58.1 58.1 0 0 0-50.1-16.8l-21.2 4.2a72 72 0 0 1 8.6-20.3l11.7-18.2-29.5 3.4L307 7.2l-18 9.3L272 0l-16.8 16.5L237 7.2 227.7 27l-29.5-3.4L210 41.8a71.2 71.2 0 0 1 8.5 20.2l-20.2-4h-.7a58 58 0 0 0-50.4 16.7 47.2 47.2 0 0 0-13 23.9 22.3 22.3 0 0 1-7.5-8.8l-11-25.5L98 86.1a49.9 49.9 0 0 0-10 36.3 46 46 0 0 0 1.3 5.5 37.4 37.4 0 0 0-38.7 9.8c-10.5 10.7-19.5 11.9-19.4 11.9 0 0-9.6 1.7-24.3 1.4l10 22.1A37.7 37.7 0 0 0 50.6 194l3.2-.3a55.4 55.4 0 0 1-30 10.5L0 203.4 7.2 226c3.6 11.5 15.7 30.7 39 32.8C43.5 269.2 38 281 25.6 286L8 293.3l9.7 16.7a43 43 0 0 0 36.5 19.6c4 0 7.7-.4 11.4-1.2 1 4.2 2.1 8.3 3.5 12.4a41 41 0 0 1 .7 27.4L61 386.4l19.6 5.1a55 55 0 0 0 23 .6 46 46 0 0 0 6.6-2 55 55 0 0 0 9.2 12.2c12.5 12.8 30.2 19.3 52.7 19.3h.1l16-.2-33.1 13.7 25.2 12c9.1 4.5 20 9.7 31 13.7l-3.2 8.5 8.7 4c.8.3 17.5 7.7 45.2 9.3 0 0 6.7.3 10.4.3 3.6 0 10.3-.3 10.3-.3 27.5-1.6 44-9 44.8-9.3l8.7-4-3.2-8.5a343 343 0 0 0 31.4-13.9L389 435l-33-13.7 16 .2c22.5 0 40.3-6.4 52.8-19.2 3.5-3.7 6.6-7.8 9.2-12.3a43.5 43.5 0 0 0 16 3.1c7.3 0 13.3-1.6 13.5-1.6l19.6-5.2-8.6-17.8c-.2-.5-4.8-11.7.6-27.8 1.4-4 2.5-8.2 3.5-12.3a54 54 0 0 0 11.5 1.2 42.7 42.7 0 0 0 36.5-19.8l9.6-16.5-17.8-7.3c-12.3-5-17.9-16.8-20.4-27.3 23-2 35.2-21.2 39-32.8zM220.2 69.8h-.3l.2-.2z"
    fill="#fff" />
  <path
    d="M272.1 68.8c-18.7 0-32.8 6.1-35.9 13.3l36 14 35.8-14c-3-7.2-17-13.3-35.9-13.3zm.4 372.7h-.7c-11.4 0-27-2.3-34.6-4.5l-9 24.4c5.9 2.2 26.2 6.2 44 6.2 17.7 0 38-4 44-6.2L307 437a147 147 0 0 1-34.6 4.5zm68.7-24.3a199 199 0 0 1-30.6 12.1l7.3 20.2a184 184 0 0 0 34-12.6l-15.2-5zm-138.2 0 4.6 14.7-15.3 5c9.2 4.6 20.5 9 34 12.6l7.4-20.2c-8.8-2.6-23.9-8.3-30.6-12.1zm69.1-371.8c14.2 0 28 3.4 38.7 9.3a93 93 0 0 1 4.2-11.3l-4 .5-4.3.4-1.7-3.8-5.4-11.3-9.9 5-3.8 2-3-3-10.7-10.5-10.7 10.5-3 3-3.9-2-9.9-5-5.3 11.3-1.8 3.8-4.3-.4-4-.5a98 98 0 0 1 4.2 11.3 81.6 81.6 0 0 1 38.6-9.3zm216 131c1.8.6 3.7.9 5.6.9 8 0 15.7-5.2 18.4-11 0 0-14.7-1-30.5-16.9-5-5.1-10.3-6.7-14.9-6.7-7 0-12.4 3.8-12.4 3.8 19 10 23 26.2 33.8 29.9zm-437.5.9c1.8 0 3.7-.3 5.5-1 10.9-3.6 14.8-19.8 33.9-29.8 0 0-5.4-3.8-12.4-3.8-4.6 0-10 1.6-15 6.7-15.7 16-30.4 16.8-30.4 16.8a21 21 0 0 0 18.4 11z"
    fill="#fff" />
  <path
    d="M493.3 242.1h1c19.9 0 26.7-21.2 26.7-21.2h-.4c-3.7 0-33.4-.9-54.4-27.4-13.8-17.4-25.1-32.8-47.5-38.8l-2.2-.4-.5-2.2c-.6-3.4 1.8-6.6 7-10 31-20 10-45.7 10-45.7s-8.8 20.5-28.5 20.5H403c-2.2-.2-4.4-.2-6.6-.7l-3.6-.7s5.6-15.2-8-29.2A41.1 41.1 0 0 0 355 74c-3.6 0-6 .5-6 .5 6.9 8.9 11.8 23.5 4 32.6-6.8 7.8-23.5 8.2-23.5 19.8 0 4.9 4.7 10.6 13 15.8 25 15.6 49.7 36.4 60 64.2 13 34.6-1.6 57.6-22.3 70.8 0 0 6.5 6 15.9 6.7l5.5.3c20 0 30.2-9.3 30.2-9.3s-1.7 12.8-12 24.7a51.6 51.6 0 0 1-41.2 17.7s-.7 8.8 7.8 16.5c5.4 4.8 18 6.4 18 6.4s-23.5 4.7-26 39c-1.5 18.7-6.3 25.2-6.3 25.2h.5c54.3 0 53-46.4 53-46.4a26.3 26.3 0 0 0 24.5 18c5 0 9.2-1.2 9.2-1.2s-8-16.6-.1-39.9c6.5-19.3 5.5-33.6 5.5-33.6s7.3 11 25.5 11h.1c15.2 0 21.8-11.3 21.8-11.3-36.3-15-32.7-63.2-32.7-63.2s4.7 3.5 13.9 3.8zm-11 50.4c-14.7-7.2-24-26.4-26.3-33.3-2.4 38-21 64.4-43 89.8a81 81 0 0 0-15.2 26s2.2-14.5 12-26.3c20.4-24.3 39.7-54.6 41.2-89.6 1-24.5-5.4-44.3-15.3-60.6a54 54 0 0 1-14 57.3s37.4-44.5-14.8-90c-20.9-17.4-43.7-28-55.5-35.6 42.5 13.7 63.2-1.4 63.2-1.4-13.5 11.7-31.1 11.5-42 9.8l9.4 4.7c35.8 19.3 68 51.1 73.5 95.2v-.4c8.3 43.3 26.9 54.4 26.9 54.4zm-342.4 48.2s12.5-1.6 18-6.4c8.4-7.7 7.8-16.5 7.8-16.5a51.7 51.7 0 0 1-41.3-17.7c-10.2-11.9-12-24.7-12-24.7s10.3 9.3 30.2 9.3c1.8 0 3.6 0 5.5-.3 9.5-.7 16-6.7 16-6.7-20.7-13.2-35.3-36.2-22.4-70.8 10.3-27.8 35-48.6 60-64.2 8.4-5.2 13-10.9 13-15.8 0-11.6-16.6-12-23.4-19.8-7.9-9-3-23.8 3.9-32.6 0 0-2.3-.5-6-.5-7.1 0-19.5 1.8-29.8 12.3-13.6 14-8 29.2-8 29.2l-3.6.7c-2.1.5-4.3.5-6.5.7h-1.5c-19.7 0-28.5-20.5-28.5-20.5s-21 25.6 9.9 45.7c5.3 3.4 7.6 6.6 7 10l-.5 2.2-2.2.4c-22.4 6-33.7 21.4-47.5 38.8A72.4 72.4 0 0 1 23.7 221h-.4S30 242 50 242h1c9.2-.3 13.9-3.8 13.9-3.8s3.5 48.2-32.7 63.2c0 0 6.6 11.4 21.7 11.4h.2c18.2-.1 25.5-11.1 25.5-11.1s-1 14.3 5.4 33.6c8 23.3 0 40 0 40s4.3 1 9.1 1a22 22 0 0 0 5.7-.6c15.1-3.6 19-17.3 19-17.3s-1.5 46.4 52.9 46.4h.4s-4.8-6.5-6.2-25.1c-2.6-34.4-26-39.1-26-39.1zm-8.7 8.3c-21.9-25.4-40.5-51.8-43-89.8-2.3 6.9-11.5 26-26.3 33.3 0 0 18.5-11 26.9-54.4v.4c5.5-44 37.7-75.9 73.5-95.2 3.3-1.8 6.4-3.3 9.3-4.7-10.9 1.7-28.4 1.9-42-9.8 0 0 20.7 15.1 63.2 1.4-11.7 7.5-34.6 18.2-55.4 35.6-52.2 45.5-14.9 90-14.9 90a54.2 54.2 0 0 1-14-57.3A105.6 105.6 0 0 0 93.3 259c1.4 35 20.8 65.3 41.1 89.6a60.1 60.1 0 0 1 12 26.3s-4-12.8-15.2-26zM232 171.2a53.4 53.4 0 0 1 5.4 7l.5.8a88 88 0 0 1 2.7 4.2c7.8 13.5 20.4 21.5 31.5 21.5 11.2 0 23.7-8 31.6-21.5l2.6-4.3.4-.6 2.5-3.3.5-.7c.9-1 1.7-2.1 2.7-3l.4-.5c4-4 8.7-7.2 15-8.9l-2.8-1.6h-.2l-11-6.4-11.3-6.4-30.3 16.4h-.1l-30.4-16.4-11.3 6.4-11 6.4h-.2l-2.8 1.6c6.3 1.7 11 4.8 15 8.8l.5.5zm27.8-1.3h25.7v8.8c-3-3.7-8.9-3-8.9-3v12.6s.2 6.2 2.4 9h-12.7c2.2-2.7 2.4-9 2.4-9v-12.6s-5.8-.7-8.9 3z"
    fill="#fff" />
  <path
    d="M269.5 153v-51.2l-32.8-11 8.7 49.6zm-7-38.6v8.2l-1.6-.7c-.1-.1-2.4-.6-6.5-3.8-6.7-5.2-6.8-10-6.8-10zm36.4 26 8.6-49.6-32.8 11V153zm-17.1-26 14.9-6.2s-.1 4.7-6.9 9.9c-4 3.2-6.4 3.7-6.4 3.8l-1.6.7v-8.2zm-58.7 157.2a29 29 0 0 0 9 1.4l.4-1 .4-1.8c.6-2.8.8-6 .8-8-1.3-.9-3.2-2.4-4.3-4.6-1.2-2.5-3-3.7-5.5-3.7-3.3 0-6.8 2-8.3 2.9-1.2 7 4 13.5 7.5 14.8zm72.5-27.2c-6 6.6-18 18-18.5 18.6l-.8.8-37.6-.6c0 3.7-.6 6.8-1.2 9.1l-.3 1.2 44.8 8c4.6-3.2 17.4-12.5 22.4-16.2a21 21 0 0 1-3.1-15.8 22.7 22.7 0 0 1-5.7-5z"
    fill="#fff" />
  <path
    d="M300.7 199.4a39.7 39.7 0 0 1-28.5 12.7h-.2a39.5 39.5 0 0 1-8.1-.9c-.5 2-1.1 6 .6 9.8 1.6 3.5 4.8 6 9.5 7.7l1.5.6v1.7c0 .5.4 11.4 12.4 14.4l5-5.3c-2.4-5.7-1.2-11.5 2.4-14.4-.2.6-1.7 15 9.8 20.2l1.9 1-.6 2c-.2.5-4 14.3 10 19.5l2.4.9-1.1 2.4c-.3.5-5.7 13 7.2 20.2h27.9v-22a17.6 17.6 0 0 1-15.2-14.8c-4.6-.8-8.2-2.8-10.7-6-5.8-7.7-.8-14.7-.7-15.1 0 0 0 7.5 4.6 12.1 2.3 2.3 5 4 9.2 4.4l2 .1.2 2.1c0 .5 1.2 10.6 10.6 12.2v-45c0-7 2-14 4.5-20.5h-56.6zM225.5 220l-.7 28.7 3.3.5 8-27.5-4.1-8.4zM314 351.6l.7.1c5 1.4 6.3 19.3 15 20.9.9.2 1.7.2 2.4.2 2.5 0 4-1 5.6-3 0 0-4.4-6.8-7.7-11.5-4.3-6-7.7-13.4-15.9-13.4h-.6a8.2 8.2 0 0 0-4.3 1.5 17 17 0 0 0-9.2-2.8c-5.1 0-9 2.3-11 2.3h-.1l-18.2-1.7c-2.9-.3-5.1-3.2-6-4.3l-.2-.5V338c-.7-14.8-12.2-21.1-16.3-21.2 0 0 .5-2.8-.6-3.9l-4 4.8-13.2-6.5 9.4 10.9-8 8.8c-1 1-.9 2.4-.4 3l3.4 3 4.3-2.6c.3-.2.7-.2 1.1-.2 1.2 0 3 .3 4.7.3 1.8 0 3.3-.4 3.5-2-.6 5.4-5.7 15-2.3 22.4l2.5 5.7-16.1-2.3-7.5 12.6c-2.4 4.2-2.7 8.8-.5 11.2l2.8 3.5s4-4.1 4.9-6.9l-1.3-1.4c-1.1-1.1-1-2.2-.4-3.5l4.7-7.7 19 4.4 1-1.7a5.7 5.7 0 0 1 5.2-2.8l2.6.3c3.5.7 9.3 1.6 15.1 1.6 6.4 0 12.7-1.1 16-4.9 7 10.2 20.9 11.8 19.8 17l-3.7 17.3a76 76 0 0 0 7-.6l3.5-18c.4-2 .7-4.7.7-4.7-1.3-1.3-4.6-4.2-6.4-7.7-2.5-4.7-1.1-7.1-3.4-13.2 0 0 .7-1.4 2.3-1.4zm-71-25.4c-1 0-1.7-.8-1.7-1.7.1-.9.9-1.6 1.8-1.5 1 0 1.6.8 1.6 1.7-.1 1-.9 1.6-1.8 1.5z"
    fill="#fff" />
  <path
    d="M217 368s6.3-2.5 6.8-4.4l-.8-2c-.6-1.4-.5-3 .6-3.7l6.8-4.7 11.4 2.2s-2-2.6-1.9-6l-10.8-2.3-10.2 6.2a9.8 9.8 0 0 0-3.3 11.7zm80.3 29.4h6.7s5.8-17 6.2-17.6c-3.3-1.4-10.1-5-12.7-6.7 1.7 2.6 6 5.6 5 7.8z"
    fill="#fff" />
  <path
    d="M352.9 296.8H191.4V357c0 24.7 18 40.2 44.5 40.2 22.2 0 28 .8 36.2 9 5.7-5.7 10.4-7.8 20-8.6l.3-.9 5-15.6a505 505 0 0 0-8.5-9.8 31 31 0 0 1-10.8 1.3 88.2 88.2 0 0 1-17.7-1.8c-.7 0-.7 0-1 .4l-1 1.6-1.8 3-3.5-.7-15.5-3.6-2 3.4.3.4 1.8 2-.8 2.8a28 28 0 0 1-6 8.7l-3.8 4.1-3.5-4.4-2.7-3.3c-2.8-3-3.4-7.8-1.9-12.8h-.1l-4.4 1.9-2-4.3-1.4-3c-2.3-5.3-1.5-13 5-17.7l12.4-7 11.9 2.3c.3-1.1.7-5.2 1-6.2h-.6l-6.9 2.4-6.6-4.5s-2.5-2.5-.2-5l6.4-9.5-16.2-20.2 24.9 10.1 1.6-2 3.4-4 3.8 3.6c1 1 1.7 2.3 2 3.6 6.8 2.6 19.1 10.5 20.2 23.2l-3.8 1.5v.1c.8 1 1.6 1.5 1.8 1.5l17.7 1.8 1.7-.5c2.2-.8 5.5-1.8 9.4-1.8 3.2 0 6.3.7 9.3 2 1-.3 2.4-.6 4-.7h.8c9.5 0 14.3 7 18 12.6.7 1 1.3 2 2 2.8 3.3 4.7 7.6 11.5 7.8 11.8l2 3-2.5 2.8a11.9 11.9 0 0 1-9.3 4.6 17.2 17.2 0 0 1-6-1.2l-.6 3-3.1 16.2a37.8 37.8 0 0 0 30.4-38.5zM191.4 292H317a20 20 0 0 1-4.6-20 20 20 0 0 1-4.7-3 2082 2082 0 0 1-23.8 17.1l-.8.6-49.3-8.8h-1c-1.2 0-3 0-4.8-.3a4.8 4.8 0 0 1-8.6 1.7c-.8-1-1-2.3-.8-3.6l.1-1a20 20 0 0 1-7.7-20l.2-.8.8-.5 2.2-1.4-3.6-.6a2.5 2.5 0 0 1-2-2.8 2.4 2.4 0 0 1 2.8-2l8.5 1.4.8-29.9 12.7-13.3 7.9 16.5-8.4 28.7 7.6 1.2c1.3.2 2.2 1.5 2 2.8-.2 1.2-1.2 2-2.4 2h-.4l-6.1-1 .2.5a6.6 6.6 0 0 0 3 2.7l37.6.6a805 805 0 0 0 9.5-9.4 20.2 20.2 0 0 1-13.1-16.7A19.6 19.6 0 0 1 260 223a20.4 20.4 0 0 1-1-13.2 44 44 0 0 1-15.6-10.4H187a59.6 59.6 0 0 1 4.5 20.5z"
    fill="#ffdd2d" />
  <path
    d="M243.1 323c-.9-.1-1.7.6-1.7 1.5-.1 1 .6 1.7 1.5 1.7 1 .1 1.7-.6 1.8-1.5 0-.9-.6-1.7-1.6-1.7zm108.6 82.2-3.9 2c-4.3 2.4-7 3.5-11 5.3-7 3-16.8 6.8-28.3 10.2-1.6.4-6.1 1.7-11.4 2.6l-1.6.3v7l-3.5.6a175.3 175.3 0 0 1-19.5 1.3h-.7a129 129 0 0 1-19.6-1.3l-3.5-.6v-7l-1.6-.3c-5.3-.9-9.9-2.2-11.4-2.6a233.5 233.5 0 0 1-28.3-10.2c-4-1.8-6.7-3-11-5.2l-3.9-2.1 4 14.6 2.1 8-7.7 2.9-14.5 5.3 4 2c11.4 5.4 27 13.2 41.7 17.5l-3.4 9.4 1.6.8c5.1 2.3 13.8 4.5 19.6 5.7 7.9 1.6 18.1 2.9 30.1 3v.2h4.3v-.1c11.9-.2 22.2-1.5 30-3 5.8-1.2 14.6-3.5 19.7-5.8l1.6-.8-3.5-9.4c14.7-4.3 30.4-12.1 41.7-17.5l4-2-14.5-5.4-7.7-2.9 2.1-7.9zm-13.6 15.6-3.8 12.3 12.4 4c-7.9 3.6-16.9 7-27.6 10l-6.1-16.6a232 232 0 0 0 25.1-9.7zm-132 0a242 242 0 0 0 25.2 9.7l-6.2 16.7a189 189 0 0 1-27.5-10L210 433zm32.3 18.4a156 156 0 0 0 33.4 4.2h.6c10.9 0 25.3-2 33.5-4.2l7.7 21c-7 2-25 5.5-41.5 5.5a173 173 0 0 1-41.5-5.5zm33.7-427.5-15.2 15-15.8-8.2-8.2 17.4-17.9-2 2.2 3.4a77 77 0 0 1 10.7 27.3l.5 3.1 2.5-2A68 68 0 0 1 272 53.2a68 68 0 0 1 41.3 12.5l2.5 2 .5-3.1A76.9 76.9 0 0 1 327 37.3l2.2-3.4-17.9 2-8.2-17.4-15.9 8.2zm0 13.6 9.4 9.2 4 4 5-2.6 8.2-4.2 4.5 9.6 2.4 5 5.6-.6h1a101 101 0 0 0-2.5 6.5 84.4 84.4 0 0 0-37.6-8.6 84.5 84.5 0 0 0-37.6 8.6c-.6-2-1.5-4.3-2.4-6.6l1 .2 5.6.5 2.4-5 4.5-9.6 8.1 4.2 5 2.6 4.1-4zM355 65.7c-4.4 0-7.4.5-7.4.5h-.1L334.2 69l8.2 10.7c4.7 6 8.7 16.8 4.2 22-1.5 1.7-4.6 3.1-8 4.7-7 3.2-17.5 8-17.5 20.6 0 8.1 6.3 16.3 16.9 23 30.3 18.9 48.7 38.4 56.6 59.9 12.2 32.7-3.6 51-19 60.9l-9.2 5.9 8.1 7.3c.8.8 8.9 7.9 20.9 8.9l6.3.3a65 65 0 0 0 14-1.6c-.8 1-1.3 2-2.3 3.1-8.7 10-19.3 14.6-35 14.9h-7.7l-.6 7.8c0 1.4-.6 13.1 10.7 23.2 1.2 1 2.5 1.9 3.8 2.7a55 55 0 0 0-14.6 36 49 49 0 0 1-4.8 21l-8.5 12.8 15.4.3c20.2 0 35.8-5.6 46.7-16.8a51.9 51.9 0 0 0 11.4-18.3 33.3 33.3 0 0 0 20 6.7c6 0 11-1.3 11.1-1.4l10-2.6-4.4-9a48 48 0 0 1 .3-33.8c2.6-7.8 4-14.7 4.8-20.6a44.2 44.2 0 0 0 18.2 3.8c20.2 0 29.1-15.5 29.1-15.5l4.9-8.4-8.9-3.6c-20.5-8.5-25.7-30.3-27-43.8 1.5.2 3 .5 4.7.5h1.2c26 0 34.5-26 34.8-27.1l3.5-11.3-11.7.4a64 64 0 0 1-48-24.2l-1.8-2.2c-11.9-15-23.5-29.6-43.2-37 11.5-7.7 18.4-17 20.1-28a41 41 0 0 0-8.5-30l-8.7-10.8-5.5 12.8c-.3.7-7 15.4-20.8 15.4h-2.2c.2-7.6-1.6-18-11.3-28a49.8 49.8 0 0 0-36-14.8Zm0 10.2c6.9 0 18.7 1.7 28.5 11.7a28.4 28.4 0 0 1 8.5 18.6c0 .5.2 5.5-1 8.6l-.8 2.1 5.9 1.1c2.3.5 4.6.6 6.8.7h1.6a28.6 28.6 0 0 0 18.3-6.4s6.2-5.1 10.3-12.3a40 40 0 0 1 4.7 12c1.2 8.2-.9 18.8-15.7 28.5-5.6 3.6-8.7 7.3-7.9 11.9l.8 3.5 3.3.6c21.6 5.9 32.6 20.7 46.5 38.1a72.8 72.8 0 0 0 53.4 28 46 46 0 0 1-4.6 7.7 24.2 24.2 0 0 1-20.2 9.9 28 28 0 0 1-12.9-3.5l-2.7-2-.3 3.4a82 82 0 0 0 7.1 38.9 48.6 48.6 0 0 0 24.6 25.2c-2.4 2.8-5.7 5-5.7 5-3.2 2-7.5 3.8-13.2 3.8h-.1a37.6 37.6 0 0 1-14.8-3.2c-1-.4-6.8-3.5-9.2-7l-4-6 .6 7.1a78 78 0 0 1-.7 13 112 112 0 0 1-4.7 20 68 68 0 0 0-3.6 22.7 56 56 0 0 0 3 16.2c-3.5.7-6.7.8-6.7.8a23.8 23.8 0 0 1-17.5-7.7s-4-4.5-5.3-8.9l-3.7.6c.2 6.8-2.9 15.6-2.9 15.6-.7 2.1-1.7 4.3-3 6.6-5.8 10.5-17.8 21.2-42.4 22a74 74 0 0 0 5-23c1.2-16.6 7.5-26 13.3-31 .6-.7 6.3-5.3 11.1-6.3l-.1-3.7c-7.7-1-13.4-3.7-13.4-3.7a15 15 0 0 1-3.5-2.2c-3.2-2.9-5-5.9-6-8.4-.1-.4-.8-2.8-1-5a52.8 52.8 0 0 0 45.9-25.6c.7-1 6-10.3 7-18.2l.8-5.1-3.9 3.4a46.7 46.7 0 0 1-18.5 7.8 57.2 57.2 0 0 1-15.7.7s-7.1-.8-12.8-4.8c20-13.9 33.6-37.2 20.8-71.5-10.5-28.4-35.7-49.4-60.8-65.1-8.1-5-12-10.3-12-14.2 0-10.3 15.4-10 22.9-18.6 7.9-9 4.1-22.8-2-32.2l2.6-.2z"
    fill="#000" />
  <path
    d="M451.2 152.2a60 60 0 0 1 19.1 17c4.6 5.7 9 11 15.7 13.3a27.5 27.5 0 0 0 32-13.6l4-8.6-9.6-.6c-.4 0-12.6-1-26.1-14.9a27.2 27.2 0 0 0-19.6-8.6c-8.9 0-15.5 4.4-16.2 4.9l-8.7 6zm15.5-9.5c4.6 0 9.9 1.6 15 6.7 15.7 16 30.4 16.8 30.4 16.8a21.1 21.1 0 0 1-18.4 11 18 18 0 0 1-5.6-.8c-10.8-3.7-14.7-19.9-33.8-30 0 0 5.3-3.7 12.4-3.7zm-11.2 95.4v.4c-5.5-44-37.7-75.9-73.5-95.3a273 273 0 0 0-9.4-4.6c11 1.6 28.5 1.8 42-9.9 0 0-20.7 15.2-63.2 1.4 11.8 7.6 34.6 18.3 55.5 35.7 52.2 45.5 14.8 90 14.8 90a54.3 54.3 0 0 0 14-57.3A106 106 0 0 1 451 259c-1.4 35-20.8 65.3-41.1 89.7-9.8 11.8-12 26.3-12 26.3s4-12.8 15.3-26c21.8-25.4 40.5-51.8 42.9-89.8 2.3 6.9 11.6 26 26.3 33.3 0 0-18.5-11-26.8-54.4zM189.2 65.6c-8 0-23.3 2-35.8 14.9a37.6 37.6 0 0 0-11.4 27.9h-2.2c-13.8 0-20.5-14.6-20.8-15.4l-5.5-12.7-8.9 10.8s-11 13.3-8.3 30c1.7 11 8.6 20.3 20.1 27.9-19.7 7.5-31.3 22-43.2 37l-1.8 2.3a64 64 0 0 1-48 24.2l-11.8-.4 3.6 11.3c.5 1.5 9.1 27.1 34.8 27.1h1.3c1.7 0 3.2-.4 4.7-.6-1.4 13.5-6.6 35.4-27 43.8l-9 3.7 4.9 8.3s9 15.5 29.2 15.5a44 44 0 0 0 18.1-3.7c.8 5.8 2.2 12.8 4.9 20.6a48 48 0 0 1 .2 33.7l-4.3 9 9.9 2.7c.4 0 5.3 1.3 11.2 1.3a33.3 33.3 0 0 0 20-6.6 52 52 0 0 0 11.3 18.3c11 11.2 26.6 16.7 46.7 16.7l15.5-.2-8.5-12.8c-.5-1-2.3-3.7-3.8-12.8-.4-2.4-.8-5.1-1-8.3-1.3-18-7.8-29-14.7-36a29.7 29.7 0 0 0 14.5-25.9l-.5-7.6-7.8-.2c-15.6-.2-26.3-4.8-35-14.8-.9-1-1.5-2.1-2.2-3.2a64 64 0 0 0 20.2 1.4c12-1 20-8.1 21-8.9l8-7.4-9.2-5.9c-15.4-9.8-31.2-28.1-19-60.9 8-21.4 26.3-41 56.7-59.9 10.6-6.7 16.8-14.8 16.8-23 0-12.5-10.5-17.3-17.5-20.5-3.4-1.6-6.5-3-8-4.7-4.5-5.2-.5-16 4.2-22l8.3-10.8-13.4-2.6s-3-.6-7.5-.6zm0 10.3 2.6.2c-6 9.4-9.8 23.1-2 32.2 7.6 8.6 23 8.3 23 18.6 0 3.8-4 9.2-12 14.2-25.2 15.7-50.4 36.7-60.9 65-12.7 34.4.8 57.7 21 71.6-5.8 4-13 4.8-13 4.8a56.7 56.7 0 0 1-29.7-5.5c-1.5-.8-3.3-1.9-4.5-3l-3.8-3.4.7 5a57.6 57.6 0 0 0 12.4 25.7 53 53 0 0 0 40.6 18.3c-.2 2.2-1 4.4-1.1 4.9-1 2.5-2.8 5.5-6 8.4-.9.8-2 1.5-3.4 2.2 0 0-5.7 2.7-13.4 3.7l-.2 3.7c4.9 1 10.5 5.6 11.2 6.2 5.8 5.2 12 14.5 13.3 31.2.8 10.7 3 18.5 4.8 23-24.5-.9-36.5-11.6-42.4-22.1a44.8 44.8 0 0 1-3-6.6s-3-8.8-2.8-15.6l-3.7-.6a23.9 23.9 0 0 1-17.6 16 20 20 0 0 1-5.2.6s-3.2-.1-6.6-.8a61.2 61.2 0 0 0-.7-39 106 106 0 0 1-5.3-32.9l.5-7.2-4 6a27.1 27.1 0 0 1-14.8 9.2c-2.6.6-5.6 1-9.1 1h-.2c-5.6 0-10-1.6-13.2-3.6 0 0-3.3-2.3-5.7-5.2 20.9-9.8 28.2-30.4 30.7-45.6.8-5.2 1-9.8 1.1-13V238h-5l2-1.3a28.2 28.2 0 0 1-13 3.4H50c-9.2 0-15.5-4.9-19.4-9.9 0 0-2.8-3.7-4.6-7.7 7.3-.3 33.7-3 53.5-28 13.8-17.4 24.8-32.2 46.4-38l3.4-.6.7-3.5c.9-4.6-2.2-8.4-7.8-12-14.8-9.7-17-20.3-15.7-28.5 0 0 1.2-6.4 4.7-12a50 50 0 0 0 10.3 12.3 28.7 28.7 0 0 0 18.3 6.4h1.5a34 34 0 0 0 7-.7l5.7-1.1-.7-2c-1.2-3.2-1-8.2-1-8.7.2-5.1 2-12 8.5-18.6A39.3 39.3 0 0 1 189.3 76z"
    fill="#000" />
  <path
    d="M50.6 183.7c2.6 0 5.2-.3 7.6-1.2 6.8-2.2 11.2-7.6 15.8-13.2a58.2 58.2 0 0 1 19-17l9.4-5-8.7-6.2c-.7-.4-7.3-4.8-16.1-4.8-7.3 0-14 3-19.6 8.6-13.6 13.7-25.7 14.9-26.2 14.9l-9.4.5 3.8 8.7c4 8.5 14.2 14.7 24.4 14.7zm12-34.2c5-5.2 10.4-6.7 15-6.7 7 0 12.3 3.7 12.3 3.7-19 10-23 26.2-33.8 29.9-1.8.6-3.7.9-5.5.9a21 21 0 0 1-18.4-11s14.7-1 30.4-16.8zM93.3 259c-1-24.4 5.3-44.2 15.2-60.5a54.2 54.2 0 0 0 14 57.3s-37.3-44.5 14.9-90c20.8-17.4 43.7-28 55.4-35.6-42.5 13.7-63.2-1.4-63.2-1.4 13.6 11.7 31.1 11.5 42 9.8l-9.3 4.6c-35.9 19.4-68 51.2-73.6 95.3v-.4C80.4 281.4 62 292.5 62 292.5c14.7-7.2 24-26.4 26.3-33.3 2.4 38 21.1 64.4 43 89.8a81.7 81.7 0 0 1 15.3 26s-2.2-14.5-12-26.3C114 324.4 94.6 294 93.2 259zm166.5-89v8.7c3-3.7 9-3 9-3v12.7s-.3 6.1-2.5 8.8H279c-2.2-2.6-2.4-8.8-2.4-8.8v-12.7s5.9-.7 8.9 3v-8.8h-12.8zm-5.4-51.9c4 3.2 6.4 3.7 6.5 3.8l1.5.7v-8.2l-14.9-6.2s.2 4.7 6.9 9.9zm35.4 0c6.8-5.2 6.9-10 6.9-10l-15 6.3v8.2l1.7-.7s2.4-.6 6.4-3.8z"
    fill="#000" />
  <path
    d="M272 59c-23.8 0-46.3 11.5-46.3 25.6v.1l.4 3.3 9.1 51.9-8.2 4.7-25.8 15a260.1 260.1 0 0 0-6.4 3.6c-9.9 6.9-12.7 17.7-5.9 22.6l2.5 1.8.5-3c1.2-6.7 6.5-14 16.8-14 7.3 0 13 3.9 17.8 9.8 1.2 1.5 2.4 3.1 3.5 4.9l2.3 3.3h-62l1.4 2.8a65 65 0 0 1 8.8 28.5v137.2c0 34.5 26.7 51 55.4 51 21.8 0 23.8-.8 35 10.2l1.2 1.3 1.4-1.3c11-11 13-10.2 34.8-10.2 28.8 0 55.4-16.5 55.4-51V220c0-10 4.2-19.4 8.8-28.5l1.4-2.8h-62l2.3-3.3c1.1-1.8 2.3-3.4 3.5-5 4.8-5.8 10.5-9.6 17.8-9.6 10.3 0 15.6 7.2 16.8 14l.5 2.9 2.5-1.8c6.8-4.9 4-15.8-6-22.6l-.8-.6-5.4-3-26-15-8.1-4.7 9-52 .6-3.2v-.1c0-14-22.6-25.6-46.4-25.6h-.1zm.1 11.7c16.8 0 29 5 33.1 10.5l-33 13-33.2-13c4-5.5 16.3-10.5 33.1-10.5zm33 22.9-8 45.5-20.5 10.8v-46.7zm-66 0 28.5 9.6v46.6l-20.5-10.7zm2.7 56 29.8 16.1.4.4h.4l.6-.5 29.4-16 10.5 6 10.3 6a34.6 34.6 0 0 0-11.7 7.8l-.5.5a52 52 0 0 0-2.8 3.2l-.5.6-2.5 3.6-.3.4-.1.1-2.7 4.5c-7.7 13-19.6 20.5-30 20.5-10.3 0-22.2-7.5-29.9-20.5l-2.6-4.4-.6-.8a83 83 0 0 0-3-4 78 78 0 0 0-2.7-3.2l-.2-.2-.3-.3c-3.3-3.3-7.1-6-11.7-7.9l10.2-6zm-9 19.8zm68.7 31.9h53.3a56.2 56.2 0 0 0-3.9 18.6v42.5c-6-2.5-6.8-9.8-6.8-9.8l-.3-3.6-3.6-.4c-3.6-.3-6-1.8-8-3.8a15 15 0 0 1-4-10v-.4c-.1-.3-.2.1-.2.1l-3.6-.9s-5.5 8 1 16.5a18 18 0 0 0 10.8 6.5 19.2 19.2 0 0 0 14.8 14.7V290h-25.5c-11.2-6.5-6-17.4-6-17.4l2-4.3-4.5-1.7c-12.6-4.6-8.7-17.1-8.7-17.1l1-3.7-3.4-1.6c-10.4-4.8-8.7-18-8.7-18l1.3-5.4-4.3 3.5c-4 3.2-5.3 9.4-3.3 15.3l-3.5 3.6c-9.7-3-9.9-12.2-9.9-12.2v-3l-2.8-1c-4.3-1.6-7-4-8.4-6.8a12 12 0 0 1-.7-6.8l2.2.3c1.4.2 2.9.3 4.3.3h.2a41.3 41.3 0 0 0 29.2-12.7zm-112 0h53.3a46 46 0 0 0 14.3 9.7c-.6 3.1-1 7.8 1.3 12.8 2 4.5 5.7 7.9 10.7 10.2.9 5.2 4 12 11.6 16-3 2.8-5.7 5.6-7.1 7l-30.3-.5c.5-.6 1-1.3 1-2.2a4.3 4.3 0 0 0-3.5-5l-5.4-.8 8-27.3-9.5-19.7-15 15.9-.8 28.4-6.4-1a4.3 4.3 0 0 0-5 3.6c-.3 2 1 4 2.8 4.6l-.3 1.3a21.2 21.2 0 0 0 7.5 21v.1a6 6 0 0 0 1.2 5c1 1.5 2.6 2.4 4.3 2.7l1.1.1c2.6 0 4.7-1.4 5.9-3.6l3.6.2h.8l49.9 8.9 1.5-1c3.8-2.6 17.3-12.4 22.8-16.4.7.6 1.6 1.1 2.5 1.7a21.7 21.7 0 0 0 2.8 17H193.3v-70a57 57 0 0 0-3.8-18.6zm28.4 79.1zm13.6-63.8 2.6 5.3-7.4 25.2.7-26.2zm64.1 30.6c1 1 2.3 2.1 3.7 3.1-.6 4.2 0 9.5 2.7 14.4l-20.5 14.8-42-7.5c.4-1.9.8-4.2 1-7l36.6.7 1.3-1.3c.4-.4 10.8-10.5 17.2-17.2zm-71.7 8.6c1.8 0 2.9.7 3.8 2.6 1 2.2 2.7 3.6 4 4.6 0 2-.2 4.5-.6 6.9 0 .4-.2.7-.3 1-2 0-4.6-.2-7-1.1-2.4-.9-6.8-6-6.3-11.9 1.6-.9 4-2.1 6.4-2.1zm-30.6 42.9h19.1l18.7 23.3-5.6 8.4.2-.2a5 5 0 0 0-1.2 5.3c.1.3.5 1.4 1.5 2.3h.1l4.3 3-2.2-.4-13.2 7.4c-7.3 5.2-8.3 14-5.6 20l1.4 3 2.7 6 3-1.2c-.6 4.1.4 8 3 11l-.1-.1 2.6 3.3 3.8 4.7c-19.9-3.5-32.5-17.1-32.5-37.4zm21.6 0h136V357c0 18-10 30.7-26 35.8l2.5-13 .2-1c.3.1.6.3 1 .3a13.7 13.7 0 0 0 14.4-5l3.2-3.7-2.7-4.2a276 276 0 0 0-9.7-14.6c-3.8-5.7-9-13.6-19.7-13.6h-.9c-1.5.2-2.6.5-3.7.8-3-1.3-6.2-2-9.5-2-4.2 0-7.8 1.1-10 1.9l-1.2.3-14.4-1.4.8-.3-.1-1.4c-1.1-13.3-13.3-21.3-20.6-24.4a9.7 9.7 0 0 0-2.2-3.6l-5.3-5-4.7 5.6-.8 1zm23 18.4 6.2 3 2-2.5-.1 1h2.2c2.8.1 13.8 5.4 14.4 19.5v1.8l.2.5.4.6c1 1.2 3.6 4.7 7.3 5l18.3 1.8h.2c2.5 0 6.1-2.3 11-2.3 2.4 0 5.2.6 8.2 2.5l1.1.7 1-.9c1.2-.8 3.3-1 3.3-1h.5c7 0 9.9 6.3 14.4 12.6.6.8 1.3 1.6 6.8 10.1-1 .9-2 1.4-3.2 1.4-.6 0-1.3 0-2-.2-7.7-1.4-8.2-19-14.8-20.8-.5-.2-1-.2-1.3-.2-.5 0-2.9.2-4 2.4l-.4.8.3.8c2.1 5.8.8 8.4 3.5 13.4 1.7 3.3 4.5 6 6 7.5l-.5 3.6-3.2 16.7-3 .2 3-14.9c1.5-7-13.4-8.7-20-18.3l-1.3-2-1.6 1.8c-2.9 3.2-8.5 4.2-14.7 4.2a89 89 0 0 1-14.7-1.5l-3-.3c-2.5 0-5 .8-6.8 3.7l-.3.5-19-4.5-5.4 9c-1 1.9-1 4 .6 5.7l.4.5c-.3.7-1.2 1.8-2.6 3.5l-1.3-1.7c-1.6-1.7-1.5-5.2.6-9l7-11.6 18.1 2.6-3.9-8.7c-3-6.8 1.9-15.5 2.5-21.6l-3.8-.4c0 .2-.2.4-1.6.4l-4.6-.3c-.6 0-1.4 0-2.2.5l-3 1.9-2.2-1.8c0-.1.1-.4.3-.5l9.1-10.2zm77.4 32.8zM239 341l-.3 1.5-2.4-.5zm-9.7 8.2 8.8 1.8.3 1.9-8.5-1.7-7.5 5.2c-2 1.4-2.1 4-1.2 5.9l.4 1s-1.3 1-3.8 2.2l-.6-1.2a8 8 0 0 1 2.7-9.4zm31.3 23.6h1c6 1.2 11.5 1.8 16.4 1.8 4.1 0 7-.3 10-1.1l7.2 8-4.7 14.5c-8.3.9-13.3 3-18.5 7.7-8.1-7.5-15-8.3-36.2-8.3-2.8 0-5.4-.3-8-.6l4.4-4.6c1.2-1.2 5.1-5.6 6.4-9.5l1.1-3.7-2-2.2.7-1.1 14.2 3.3 4.8 1 2.5-4zm43.6 6 3.5 2-5.2 14.7H300l4.5-14v.1c.3-1 .2-1.8-.1-2.7z"
    fill="#000" />
</svg>
